<?xml version="1.0" encoding="UTF-8"?>
<!DOCTYPE svg PUBLIC "-//W3C//DTD SVG 1.0//EN" "http://www.w3.org/TR/2001/REC-SVG-20010904/DTD/svg10.dtd">
<!-- Creator: CorelDRAW -->
<svg xmlns="http://www.w3.org/2000/svg" xml:space="preserve" width="800px" height="800px" version="1.0" style="shape-rendering:geometricPrecision; text-rendering:geometricPrecision; image-rendering:optimizeQuality; fill-rule:evenodd; clip-rule:evenodd"
viewBox="0 0 120.14 120.14"
 xmlns:xlink="http://www.w3.org/1999/xlink"
 xmlns:xodm="http://www.corel.com/coreldraw/odm/2003">
 <defs>
  <style type="text/css">
   <![CDATA[
    .str0 {stroke:#FFB200;stroke-width:1.49;stroke-miterlimit:22.9256}
    .fil1 {fill:none}
    .fil0 {fill:white;fill-rule:nonzero}
   ]]>
  </style>
 </defs>
 <g id="Layer_x0020_1">
  <metadata id="CorelCorpID_0Corel-Layer"/>
  <path class="fil0 str0" d="M83.15 53.66c-0.09,-0.04 -0.19,-0.08 -0.3,-0.11l-15.55 -4.72 0 -5.44 2.41 0c1.33,0 2.41,-1.08 2.41,-2.41l0 -14.46c0,-1.33 -1.08,-2.41 -2.41,-2.41l-19.28 0c-1.33,0 -2.41,1.08 -2.41,2.41l0 14.46c0,1.33 1.08,2.41 2.41,2.41l2.41 0 0 5.44 -15.55 4.72c-0.1,0.03 -0.2,0.07 -0.3,0.11 -4.87,1.59 -8.25,6.23 -8.25,11.42 0,1.13 0.16,2.27 0.48,3.4 0.02,0.08 0.05,0.16 0.08,0.24l4.91 16.46c0.02,0.05 0.03,0.1 0.04,0.15l4.23 14.18c0.31,1.03 1.24,1.72 2.31,1.72l38.56 0c1.07,0 2.01,-0.69 2.31,-1.72l4.23 -14.18c0.02,-0.05 0.03,-0.09 0.05,-0.14l4.9 -16.46c0.04,-0.08 0.07,-0.16 0.09,-0.25 0.31,-1.13 0.47,-2.27 0.47,-3.4 0,-5.18 -3.37,-9.83 -8.25,-11.42zm-30.31 -24.73l14.46 0 0 9.64 -14.46 0 0 -9.64zm24.71 67.48l-34.96 0 -2.87 -9.64 40.72 0 -2.89 9.64zm4.32 -14.46l-43.6 0 -2.87 -9.64 49.35 0 -2.88 9.64zm4.46 -14.95c-0.01,0.05 -0.03,0.1 -0.05,0.15l-0.1 0.34 -52.22 0 -0.1 -0.34c-0.02,-0.05 -0.03,-0.1 -0.05,-0.15 -0.17,-0.65 -0.25,-1.28 -0.25,-1.92 0,-3.17 2.1,-6.01 5.11,-6.89 0.11,-0.03 0.21,-0.07 0.31,-0.11l15.26 -4.63c2.05,-0.62 3.42,-2.48 3.42,-4.62l0 -5.44 4.82 0 0 5.44c0,2.14 1.37,4 3.42,4.62l15.26 4.62c0.1,0.05 0.2,0.09 0.31,0.12 3.01,0.88 5.11,3.72 5.11,6.89 0,0.64 -0.08,1.27 -0.25,1.92z"/>
  <rect class="fil1" width="120.14" height="120.14"/>
 </g>
</svg>
