<svg id="Capa_1" enable-background="new 0 0 512 512" height="512" viewBox="0 0 512 512" width="512" xmlns="http://www.w3.org/2000/svg"><g><path d="m423.303 223.071h-102.908l32.186-55.748c9.783-16.931 14.954-36.223 14.954-55.787 0-61.502-50.034-111.536-111.535-111.536s-111.535 50.034-111.535 111.535c0 19.583 5.181 38.887 14.981 55.824.14.24 32.163 55.712 32.163 55.712h-102.912v63.734h127.469l-31.867 225.195h143.402l-31.867-225.195h127.469zm-125.906-87.635-41.397 71.701s-41.397-71.701-41.39-71.701c-4.07-7.033-6.411-15.191-6.411-23.9 0-26.4 21.401-47.801 47.801-47.801s47.801 21.401 47.801 47.801c0 8.709-2.341 16.867-6.404 23.9z"/></g></svg>