<?xml version="1.0" encoding="UTF-8"?>
<!DOCTYPE svg PUBLIC "-//W3C//DTD SVG 1.0//EN" "http://www.w3.org/TR/2001/REC-SVG-20010904/DTD/svg10.dtd">
<!-- Creator: CorelDRAW -->
<svg xmlns="http://www.w3.org/2000/svg" xml:space="preserve" width="800px" height="800px" version="1.0" style="shape-rendering:geometricPrecision; text-rendering:geometricPrecision; image-rendering:optimizeQuality; fill-rule:evenodd; clip-rule:evenodd"
viewBox="0 0 4.62 4.62"
 xmlns:xlink="http://www.w3.org/1999/xlink"
 xmlns:xodm="http://www.corel.com/coreldraw/odm/2003">
 <defs>
  <style type="text/css">
   <![CDATA[
    .fil2 {fill:#7E8384;fill-rule:nonzero}
    .fil0 {fill:#FFB200;fill-rule:nonzero}
    .fil1 {fill:white;fill-rule:nonzero}
   ]]>
  </style>
 </defs>
 <g id="Layer_x0020_1">
  <metadata id="CorelCorpID_0Corel-Layer"/>
  <path class="fil0" d="M0 2.31c0,-1.28 1.03,-2.31 2.31,-2.31 1.28,0 2.31,1.03 2.31,2.31 0,1.28 -1.03,2.31 -2.31,2.31 -1.28,0 -2.31,-1.03 -2.31,-2.31z"/>
  <path class="fil1" d="M2.89 2.31l-0.38 0 0 1.37 -0.57 0 0 -1.37 -0.27 0 0 -0.48 0.27 0 0 -0.31c0,-0.23 0.11,-0.58 0.58,-0.58l0.42 0.01 0 0.46 -0.31 0c-0.05,0 -0.12,0.03 -0.12,0.13l0 0.29 0.43 0 -0.05 0.48z"/>
  <path class="fil2" d="M2.31 4.62c-1.27,0 -2.3,-1.03 -2.31,-2.29 0.01,1.26 1.04,2.29 2.31,2.29 1.28,0 2.31,-1.03 2.31,-2.31 0,0 0,-0.01 0,-0.01 0,0 0,0.01 0,0.01 0,1.28 -1.03,2.31 -2.31,2.31z"/>
 </g>
</svg>
