<?xml version="1.0" encoding="UTF-8"?>
<!DOCTYPE svg PUBLIC "-//W3C//DTD SVG 1.0//EN" "http://www.w3.org/TR/2001/REC-SVG-20010904/DTD/svg10.dtd">
<!-- Creator: CorelDRAW -->
<svg xmlns="http://www.w3.org/2000/svg" xml:space="preserve" width="800px" height="800px" version="1.0" style="shape-rendering:geometricPrecision; text-rendering:geometricPrecision; image-rendering:optimizeQuality; fill-rule:evenodd; clip-rule:evenodd"
viewBox="0 0 30.81 30.81"
 xmlns:xlink="http://www.w3.org/1999/xlink"
 xmlns:xodm="http://www.corel.com/coreldraw/odm/2003">
 <defs>
  <style type="text/css">
   <![CDATA[
    .fil3 {fill:white}
    .fil1 {fill:#7E8384;fill-rule:nonzero}
    .fil2 {fill:#CF9000;fill-rule:nonzero}
    .fil0 {fill:#FFB200;fill-rule:nonzero}
   ]]>
  </style>
 </defs>
 <g id="Layer_x0020_1">
  <metadata id="CorelCorpID_0Corel-Layer"/>
  <path class="fil0" d="M0 15.41c0,-8.51 6.9,-15.41 15.41,-15.41 8.51,0 15.4,6.9 15.4,15.41 0,8.51 -6.89,15.4 -15.4,15.4 -8.51,0 -15.41,-6.89 -15.41,-15.4z"/>
  <path class="fil1" d="M15.41 30.81c-8.51,0 -15.41,-6.89 -15.41,-15.4 0,-0.08 0,-0.16 0,-0.24 0,0.08 0,0.16 0,0.24 0,8.51 6.9,15.4 15.41,15.4 0,0 0,0 0,0z"/>
  <path class="fil2" d="M15.41 30.81c-8.51,0 -15.41,-6.89 -15.41,-15.4 0,-0.08 0,-0.16 0,-0.24 0.01,-0.17 0.01,-0.33 0.02,-0.48 0.38,8.17 7.12,14.68 15.39,14.68 8.26,0 15.01,-6.51 15.39,-14.68 0.01,0.24 0.01,0.48 0.01,0.72 0,8.51 -6.89,15.4 -15.4,15.4l0 0z"/>
  <g id="_2555360778736">
   <path class="fil3" d="M15.41 5.87c-2.46,0 -2.79,0 -3.73,0.05 -0.98,0.03 -1.63,0.21 -2.2,0.42 -0.59,0.24 -1.09,0.53 -1.59,1.03 -0.51,0.51 -0.83,1.01 -1.04,1.6 -0.24,0.57 -0.39,1.25 -0.41,2.2 -0.03,0.97 -0.06,1.27 -0.06,3.73 0,2.45 0,2.78 0.06,3.73 0.02,0.97 0.2,1.63 0.41,2.19 0.24,0.59 0.53,1.09 1.04,1.6 0.5,0.5 1,0.8 1.59,1.03 0.6,0.24 1.25,0.39 2.2,0.42 0.97,0.03 1.27,0.06 3.73,0.06 2.45,0 2.78,0 3.73,-0.06 0.97,-0.03 1.63,-0.21 2.19,-0.42 0.59,-0.23 1.09,-0.53 1.6,-1.03 0.5,-0.51 0.83,-1.01 1.03,-1.6 0.24,-0.56 0.39,-1.25 0.42,-2.19 0.03,-0.98 0.06,-1.28 0.06,-3.73 0,-2.46 0,-2.79 -0.06,-3.73 -0.03,-0.98 -0.21,-1.63 -0.42,-2.2 -0.23,-0.59 -0.53,-1.09 -1.03,-1.6 -0.51,-0.5 -1.01,-0.82 -1.6,-1.03 -0.59,-0.24 -1.24,-0.39 -2.19,-0.42 -0.95,-0.03 -1.28,-0.05 -3.73,-0.05zm0 1.65c2.42,0 2.72,0 3.67,0.06 0.89,0.03 1.36,0.18 1.69,0.33 0.41,0.18 0.74,0.35 1.03,0.68 0.33,0.32 0.51,0.62 0.68,1.04 0.12,0.32 0.27,0.79 0.33,1.68 0.03,0.95 0.06,1.25 0.06,3.67 0,2.43 0,2.73 -0.06,3.68 -0.03,0.88 -0.18,1.36 -0.33,1.68 -0.17,0.42 -0.35,0.74 -0.68,1.04 -0.32,0.33 -0.62,0.5 -1.03,0.68 -0.33,0.12 -0.8,0.27 -1.69,0.33 -0.95,0.03 -1.25,0.06 -3.67,0.06 -2.43,0 -2.73,0 -3.67,-0.06 -0.89,-0.03 -1.37,-0.18 -1.69,-0.33 -0.42,-0.18 -0.74,-0.35 -1.04,-0.68 -0.32,-0.32 -0.5,-0.62 -0.68,-1.04 -0.12,-0.32 -0.27,-0.8 -0.33,-1.68 -0.03,-0.95 -0.05,-1.25 -0.05,-3.68 0,-2.42 0,-2.72 0.05,-3.67 0.03,-0.89 0.18,-1.36 0.33,-1.68 0.18,-0.42 0.36,-0.74 0.68,-1.04 0.33,-0.33 0.62,-0.5 1.04,-0.68 0.32,-0.12 0.8,-0.27 1.69,-0.33 0.94,-0.06 1.24,-0.06 3.67,-0.06z"/>
   <path class="fil3" d="M21.36 10.22c0,0.65 -0.53,1.18 -1.19,1.18 -0.65,0 -1.18,-0.53 -1.18,-1.18 0,-0.65 0.53,-1.19 1.18,-1.19 0.66,-0.03 1.19,0.51 1.19,1.19z"/>
   <path class="fil3" d="M15.41 10.31c-2.58,0 -4.65,2.07 -4.65,4.65 0,2.57 2.07,4.64 4.65,4.64 2.57,0 4.65,-2.07 4.65,-4.64 0,-2.58 -2.08,-4.65 -4.65,-4.65zm0 7.67c-1.66,0 -3.02,-1.37 -3.02,-3.02 0,-1.66 1.36,-3.02 3.02,-3.02 1.66,0 3.02,1.36 3.02,3.02 0,1.65 -1.36,3.02 -3.02,3.02z"/>
  </g>
 </g>
</svg>
