<?xml version="1.0" encoding="UTF-8"?>
<!DOCTYPE svg PUBLIC "-//W3C//DTD SVG 1.0//EN" "http://www.w3.org/TR/2001/REC-SVG-20010904/DTD/svg10.dtd">
<!-- Creator: CorelDRAW -->
<svg xmlns="http://www.w3.org/2000/svg" xml:space="preserve" width="800px" height="800px" version="1.0" style="shape-rendering:geometricPrecision; text-rendering:geometricPrecision; image-rendering:optimizeQuality; fill-rule:evenodd; clip-rule:evenodd"
viewBox="0 0 4.55 4.55"
 xmlns:xlink="http://www.w3.org/1999/xlink"
 xmlns:xodm="http://www.corel.com/coreldraw/odm/2003">
 <defs>
  <style type="text/css">
   <![CDATA[
    .fil2 {fill:white}
    .fil1 {fill:#7E8384;fill-rule:nonzero}
    .fil0 {fill:#FFB200;fill-rule:nonzero}
   ]]>
  </style>
 </defs>
 <g id="Layer_x0020_1">
  <metadata id="CorelCorpID_0Corel-Layer"/>
  <path class="fil0" d="M0 2.27c0,-1.25 1.02,-2.27 2.27,-2.27 1.26,0 2.28,1.02 2.28,2.27 0,1.26 -1.02,2.28 -2.28,2.28 -1.25,0 -2.27,-1.02 -2.27,-2.28z"/>
  <path class="fil1" d="M2.27 4.55c-1.25,0 -2.27,-1.02 -2.27,-2.28 0,-0.01 0,-0.02 0,-0.03 0,0.01 0,0.02 0,0.03 0,1.26 1.02,2.28 2.27,2.28 0,0 0,0 0,0z"/>
  <path class="fil2" d="M2.27 0.94c-0.36,0 -0.41,0 -0.55,0.01 -0.14,0 -0.24,0.03 -0.32,0.06 -0.09,0.04 -0.16,0.08 -0.24,0.15 -0.07,0.08 -0.12,0.15 -0.15,0.24 -0.03,0.08 -0.06,0.18 -0.06,0.32 0,0.15 -0.01,0.19 -0.01,0.55 0,0.37 0,0.42 0.01,0.56 0,0.14 0.03,0.24 0.06,0.32 0.04,0.09 0.08,0.16 0.15,0.24 0.08,0.07 0.15,0.11 0.24,0.15 0.09,0.03 0.18,0.05 0.32,0.06 0.15,0 0.19,0.01 0.55,0.01 0.37,0 0.42,0 0.56,-0.01 0.14,-0.01 0.24,-0.03 0.32,-0.06 0.09,-0.04 0.16,-0.08 0.24,-0.15 0.07,-0.08 0.12,-0.15 0.15,-0.24 0.03,-0.08 0.05,-0.18 0.06,-0.32 0,-0.15 0.01,-0.19 0.01,-0.56 0,-0.36 0,-0.41 -0.01,-0.55 -0.01,-0.14 -0.03,-0.24 -0.06,-0.32 -0.04,-0.09 -0.08,-0.16 -0.15,-0.24 -0.08,-0.07 -0.15,-0.12 -0.24,-0.15 -0.09,-0.03 -0.18,-0.06 -0.32,-0.06 -0.14,0 -0.19,-0.01 -0.56,-0.01zm0 0.25c0.36,0 0.41,0 0.55,0 0.13,0.01 0.2,0.03 0.25,0.05 0.06,0.03 0.11,0.06 0.15,0.1 0.05,0.05 0.07,0.1 0.1,0.16 0.02,0.04 0.04,0.11 0.05,0.25 0,0.14 0.01,0.18 0.01,0.54 0,0.36 0,0.4 -0.01,0.54 -0.01,0.13 -0.03,0.2 -0.05,0.25 -0.03,0.06 -0.05,0.11 -0.1,0.15 -0.05,0.05 -0.09,0.08 -0.15,0.1 -0.05,0.02 -0.12,0.04 -0.25,0.05 -0.14,0 -0.19,0.01 -0.55,0.01 -0.35,0 -0.4,0 -0.54,-0.01 -0.13,0 -0.2,-0.03 -0.25,-0.05 -0.06,-0.02 -0.11,-0.05 -0.15,-0.1 -0.05,-0.05 -0.07,-0.09 -0.1,-0.15 -0.02,-0.05 -0.04,-0.12 -0.05,-0.25 0,-0.14 -0.01,-0.18 -0.01,-0.54 0,-0.36 0,-0.4 0.01,-0.54 0.01,-0.14 0.03,-0.21 0.05,-0.25 0.03,-0.06 0.05,-0.11 0.1,-0.16 0.05,-0.04 0.09,-0.07 0.15,-0.1 0.05,-0.01 0.12,-0.04 0.25,-0.05 0.14,0 0.19,0 0.54,0z"/>
  <path class="fil2" d="M3.15 1.51c0,0.09 -0.08,0.17 -0.17,0.17 -0.1,0 -0.18,-0.08 -0.18,-0.17 0,-0.1 0.08,-0.18 0.18,-0.18 0.09,0 0.17,0.08 0.17,0.18z"/>
  <path class="fil2" d="M2.27 1.52c-0.38,0 -0.68,0.31 -0.68,0.69 0,0.38 0.3,0.68 0.68,0.68 0.38,0 0.69,-0.3 0.69,-0.68 0,-0.38 -0.31,-0.69 -0.69,-0.69zm0 1.13c-0.24,0 -0.44,-0.2 -0.44,-0.44 0,-0.25 0.2,-0.45 0.44,-0.45 0.25,0 0.45,0.2 0.45,0.45 0,0.24 -0.2,0.44 -0.45,0.44z"/>
 </g>
</svg>
