<?xml version="1.0" encoding="UTF-8"?>
<!DOCTYPE svg PUBLIC "-//W3C//DTD SVG 1.0//EN" "http://www.w3.org/TR/2001/REC-SVG-20010904/DTD/svg10.dtd">
<!-- Creator: CorelDRAW -->
<svg xmlns="http://www.w3.org/2000/svg" xml:space="preserve" width="800px" height="800px" version="1.0" style="shape-rendering:geometricPrecision; text-rendering:geometricPrecision; image-rendering:optimizeQuality; fill-rule:evenodd; clip-rule:evenodd"
viewBox="0 0 366.51 366.51"
 xmlns:xlink="http://www.w3.org/1999/xlink"
 xmlns:xodm="http://www.corel.com/coreldraw/odm/2003">
 <defs>
  <style type="text/css">
   <![CDATA[
    .str0 {stroke:#FFB200;stroke-width:4.56;stroke-miterlimit:22.9256}
    .fil1 {fill:none}
    .fil0 {fill:white;fill-rule:nonzero}
   ]]>
  </style>
 </defs>
 <g id="Layer_x0020_1">
  <metadata id="CorelCorpID_0Corel-Layer"/>
  <path class="fil0 str0" d="M267.28 174.39l-25.21 0 0 -8.4c0,-4.64 -3.76,-8.4 -8.4,-8.4l-168.05 0c-4.64,0 -8.4,3.76 -8.4,8.4l0 67.22c0,41.69 33.93,75.62 75.62,75.62l33.61 0c32.82,0 60.53,-21.14 70.98,-50.41l29.85 0c11.34,0 21.9,-4.42 29.56,-12.29 8.03,-7.83 12.45,-18.38 12.45,-29.72 0,-23.16 -18.84,-42.02 -42.01,-42.02zm-42.01 58.82c0,32.43 -26.39,58.82 -58.82,58.82l-33.61 0c-32.43,0 -58.82,-26.39 -58.82,-58.82l0 -58.82 151.25 0 0 58.82zm59.69 1.02c-4.64,4.76 -10.92,7.38 -17.68,7.38l-26.06 0c0.31,-2.79 0.85,-5.53 0.85,-8.4l0 -42.01 25.21 0c13.9,0 25.21,11.31 25.21,25.21 0,6.77 -2.63,13.04 -7.53,17.82z"/>
  <path class="fil0 str0" d="M207.39 103.06c-5.58,-9.93 -2.09,-14.39 -1.53,-15.01 3.26,-3.11 3.51,-8.27 0.49,-11.66 -3.1,-3.48 -8.42,-3.8 -11.87,-0.71 -0.59,0.54 -14.37,13.16 -1.75,35.61 5.7,10.12 1.95,14.55 1.75,14.81 -3.46,3.07 -3.8,8.4 -0.7,11.86 1.66,1.87 3.96,2.83 6.28,2.83 1.98,0 3.98,-0.71 5.58,-2.12 0.59,-0.52 14.37,-13.16 1.75,-35.61z"/>
  <path class="fil0 str0" d="M148.57 103.06c-5.58,-9.93 -2.08,-14.39 -1.53,-15.01 3.26,-3.11 3.51,-8.27 0.49,-11.66 -3.09,-3.48 -8.44,-3.8 -11.87,-0.71 -0.59,0.54 -14.36,13.16 -1.74,35.61 5.69,10.12 1.95,14.55 1.74,14.81 -3.46,3.07 -3.79,8.4 -0.7,11.86 1.66,1.87 3.96,2.83 6.28,2.83 1.99,0 3.99,-0.71 5.58,-2.12 0.59,-0.52 14.37,-13.16 1.75,-35.61z"/>
  <path class="fil0 str0" d="M89.75 103.06c-5.58,-9.93 -2.08,-14.39 -1.53,-15.01 3.27,-3.11 3.52,-8.27 0.49,-11.66 -3.11,-3.48 -8.43,-3.8 -11.86,-0.71 -0.59,0.54 -14.37,13.16 -1.75,35.61 5.7,10.12 1.95,14.55 1.75,14.81 -3.46,3.09 -3.8,8.4 -0.71,11.86 1.67,1.87 3.97,2.83 6.29,2.83 1.98,0 3.98,-0.71 5.58,-2.12 0.58,-0.52 14.36,-13.16 1.74,-35.61z"/>
  <rect class="fil1" width="366.51" height="366.51"/>
 </g>
</svg>
