<?xml version="1.0" encoding="UTF-8"?>
<!DOCTYPE svg PUBLIC "-//W3C//DTD SVG 1.0//EN" "http://www.w3.org/TR/2001/REC-SVG-20010904/DTD/svg10.dtd">
<!-- Creator: CorelDRAW -->
<svg xmlns="http://www.w3.org/2000/svg" xml:space="preserve" width="800px" height="800px" version="1.0" style="shape-rendering:geometricPrecision; text-rendering:geometricPrecision; image-rendering:optimizeQuality; fill-rule:evenodd; clip-rule:evenodd"
viewBox="0 0 118.18 118.18"
 xmlns:xlink="http://www.w3.org/1999/xlink"
 xmlns:xodm="http://www.corel.com/coreldraw/odm/2003">
 <defs>
  <style type="text/css">
   <![CDATA[
    .str0 {stroke:#FFB200;stroke-width:1.18;stroke-miterlimit:22.9256}
    .fil1 {fill:none}
    .fil0 {fill:white;fill-rule:nonzero}
   ]]>
  </style>
 </defs>
 <g id="Layer_x0020_1">
  <metadata id="CorelCorpID_0Corel-Layer"/>
  <path class="fil0 str0" d="M99.99 83.74l-6.77 -22.54c-0.54,-1.8 -1.75,-3.29 -3.41,-4.18 -1.65,-0.89 -3.56,-1.08 -5.36,-0.54l-5.22 1.57c0.76,-1.18 1.17,-2.6 1.1,-4.11l-1.09 -23.51c-0.09,-1.88 -0.9,-3.61 -2.29,-4.88 -1.39,-1.26 -3.19,-1.91 -5.06,-1.82l-23.52 1.08c-1.88,0.09 -3.61,0.9 -4.87,2.29 -1.27,1.39 -1.92,3.19 -1.83,5.07l1.09 23.52c0.02,0.49 0.09,0.96 0.21,1.42l-14.87 -1.55c-1.87,-0.2 -3.71,0.35 -5.17,1.53 -1.46,1.18 -2.37,2.87 -2.56,4.74l-2.45 23.41c-0.19,1.87 0.35,3.7 1.54,5.16 1.18,1.46 2.86,2.37 4.73,2.57l23.42 2.44c0.25,0.03 0.49,0.04 0.74,0.04 1.61,0 3.15,-0.55 4.42,-1.57 1.46,-1.19 2.37,-2.87 2.56,-4.74l1.81 -17.31c0.02,0.06 0.03,0.13 0.05,0.19l6.78 22.54c0.54,1.8 1.75,3.29 3.4,4.18 1.04,0.56 2.18,0.84 3.33,0.84 0.68,0 1.36,-0.1 2.03,-0.3l22.55 -6.78c3.71,-1.11 5.83,-5.04 4.71,-8.76l0 0zm-52.93 -53.38c0.4,-0.44 0.94,-0.69 1.53,-0.72l23.52 -1.09c0.03,0 0.07,0 0.11,0 0.55,0 1.07,0.2 1.48,0.57 0.44,0.4 0.69,0.94 0.72,1.53l1.09 23.52c0.05,1.21 -0.89,2.25 -2.11,2.31l-23.51 1.09c-1.22,0.05 -2.25,-0.89 -2.31,-2.11l-1.09 -23.51c-0.03,-0.59 0.18,-1.16 0.57,-1.59l0 0zm5.92 34.87l-2.45 23.41c-0.06,0.59 -0.34,1.12 -0.8,1.49 -0.46,0.37 -1.04,0.54 -1.62,0.48l-23.42 -2.44c-0.58,-0.06 -1.11,-0.35 -1.48,-0.81 -0.37,-0.46 -0.54,-1.03 -0.48,-1.62l2.44 -23.41c0.06,-0.59 0.35,-1.12 0.81,-1.49 0.45,-0.37 1.03,-0.54 1.62,-0.48l23.41 2.44c0.59,0.06 1.11,0.35 1.48,0.81 0.38,0.46 0.55,1.03 0.49,1.62l0 0zm4.69 1.57l0.11 -1.07c0.13,-1.28 -0.08,-2.53 -0.6,-3.67l10.29 -0.48 -5.56 1.67c-1.92,0.58 -3.4,1.9 -4.24,3.55l0 0zm36.22 21.08l-22.55 6.77c-0.56,0.17 -1.16,0.11 -1.68,-0.17 -0.52,-0.28 -0.9,-0.74 -1.07,-1.31l-6.77 -22.54c-0.35,-1.17 0.31,-2.4 1.48,-2.75l22.54 -6.77c0.21,-0.07 0.43,-0.1 0.64,-0.1 0.36,0 0.72,0.09 1.04,0.27 0.52,0.27 0.9,0.74 1.07,1.3l6.78 22.55c0.35,1.17 -0.32,2.4 -1.48,2.75zm0 0z"/>
  <path class="fil0 str0" d="M52.17 44.79c0.04,0 0.08,0 0.12,0 1.33,-0.06 2.36,-1.19 2.29,-2.52l-0.27 -5.63 5.71 -0.28c1.33,-0.06 2.36,-1.19 2.29,-2.52 -0.06,-1.34 -1.19,-2.37 -2.52,-2.3l-7.11 0.34c-0.91,0.05 -1.76,0.44 -2.37,1.12 -0.62,0.68 -0.93,1.55 -0.89,2.46l0.34 7.04c0.06,1.29 1.13,2.29 2.41,2.29l0 0zm0 0z"/>
  <path class="fil0 str0" d="M38.41 64.2l-7.08 -0.72c-0.91,-0.09 -1.8,0.18 -2.51,0.76 -0.71,0.57 -1.15,1.39 -1.24,2.3l-0.72 7.01c-0.13,1.32 0.84,2.51 2.16,2.64 0.08,0.01 0.17,0.01 0.25,0.01 1.22,0 2.27,-0.92 2.4,-2.17l0.57 -5.6 5.68 0.58c1.32,0.13 2.51,-0.83 2.65,-2.16 0.13,-1.33 -0.83,-2.51 -2.16,-2.65l0 0zm0 0z"/>
  <path class="fil0 str0" d="M75.02 67.34l-6.81 2.05c-1.81,0.55 -2.84,2.46 -2.29,4.27l2.03 6.74c0.32,1.04 1.27,1.72 2.31,1.72 0.23,0 0.47,-0.04 0.7,-0.11 1.28,-0.38 2,-1.73 1.61,-3l-1.62 -5.4 5.46 -1.65c1.28,-0.38 2,-1.73 1.62,-3.01 -0.39,-1.27 -1.74,-2 -3.01,-1.61l0 0zm0 0z"/>
  <rect class="fil1" width="118.18" height="118.18"/>
 </g>
</svg>
