<?xml version="1.0" encoding="UTF-8"?>
<!DOCTYPE svg PUBLIC "-//W3C//DTD SVG 1.0//EN" "http://www.w3.org/TR/2001/REC-SVG-20010904/DTD/svg10.dtd">
<!-- Creator: CorelDRAW -->
<svg xmlns="http://www.w3.org/2000/svg" xml:space="preserve" width="800px" height="800px" version="1.0" style="shape-rendering:geometricPrecision; text-rendering:geometricPrecision; image-rendering:optimizeQuality; fill-rule:evenodd; clip-rule:evenodd"
viewBox="0 0 6.94 6.94"
 xmlns:xlink="http://www.w3.org/1999/xlink"
 xmlns:xodm="http://www.corel.com/coreldraw/odm/2003">
 <defs>
  <style type="text/css">
   <![CDATA[
    .fil2 {fill:#7E8384;fill-rule:nonzero}
    .fil1 {fill:#CED3D3;fill-rule:nonzero}
    .fil0 {fill:#FFB200;fill-rule:nonzero}
    .fil3 {fill:white;fill-rule:nonzero}
   ]]>
  </style>
 </defs>
 <g id="Layer_x0020_1">
  <metadata id="CorelCorpID_0Corel-Layer"/>
  <path class="fil0" d="M0 3.47c0,-1.92 1.55,-3.47 3.47,-3.47 1.91,0 3.47,1.55 3.47,3.47 0,1.91 -1.56,3.47 -3.47,3.47 -1.92,0 -3.47,-1.56 -3.47,-3.47z"/>
  <path class="fil1" d="M1.99 0.33c0.01,0 0.02,-0.01 0.03,-0.02 0.31,-0.14 0.63,-0.23 0.96,-0.28 -0.35,0.05 -0.68,0.16 -0.99,0.3zm1.49 -0.33c-0.01,0 -0.01,0 -0.01,0 0,0 0,0 0,0 0,0 0,0 0,0 0.01,0 0.01,0 0.01,0z"/>
  <path class="fil2" d="M3.47 6.94c-0.02,0 -0.05,0 -0.07,0 0.02,0 0.05,0 0.07,0 1.91,0 3.47,-1.56 3.47,-3.47 0,-0.01 0,-0.02 0,-0.03 0,0.01 0,0.02 0,0.03 0,1.91 -1.56,3.47 -3.47,3.47z"/>
  <path class="fil3" d="M4.31 1.47l-1.68 0c-0.17,0 -0.3,0.13 -0.3,0.29l0 3.42c0,0.16 0.13,0.29 0.3,0.29l1.68 0c0.16,0 0.29,-0.13 0.29,-0.29l0 -3.42c0,-0.16 -0.13,-0.29 -0.29,-0.29zm-1.26 0.17l0.83 0c0.03,0 0.04,0.03 0.04,0.07 0,0.04 -0.01,0.07 -0.04,0.07l-0.83 0c-0.02,0 -0.04,-0.03 -0.04,-0.07 0,-0.04 0.02,-0.07 0.04,-0.07zm0.42 3.54c-0.1,0 -0.19,-0.08 -0.19,-0.18 0,-0.11 0.09,-0.19 0.19,-0.19 0.1,0 0.18,0.08 0.18,0.19 0,0.1 -0.08,0.18 -0.18,0.18zm0.91 -0.63l-1.83 0 0 -2.59 1.83 0 0 2.59z"/>
 </g>
</svg>
