<?xml version="1.0" encoding="UTF-8"?>
<!DOCTYPE svg PUBLIC "-//W3C//DTD SVG 1.0//EN" "http://www.w3.org/TR/2001/REC-SVG-20010904/DTD/svg10.dtd">
<!-- Creator: CorelDRAW -->
<svg xmlns="http://www.w3.org/2000/svg" xml:space="preserve" width="800px" height="800px" version="1.0" style="shape-rendering:geometricPrecision; text-rendering:geometricPrecision; image-rendering:optimizeQuality; fill-rule:evenodd; clip-rule:evenodd"
viewBox="0 0 157.45 157.44"
 xmlns:xlink="http://www.w3.org/1999/xlink"
 xmlns:xodm="http://www.corel.com/coreldraw/odm/2003">
 <defs>
  <style type="text/css">
   <![CDATA[
    .fil3 {fill:#7E8384;fill-rule:nonzero}
    .fil1 {fill:#CED3D3;fill-rule:nonzero}
    .fil4 {fill:#CF9000;fill-rule:nonzero}
    .fil0 {fill:#FFB200;fill-rule:nonzero}
    .fil2 {fill:#FFC746;fill-rule:nonzero}
    .fil5 {fill:white;fill-rule:nonzero}
   ]]>
  </style>
 </defs>
 <g id="Layer_x0020_1">
  <metadata id="CorelCorpID_0Corel-Layer"/>
  <path class="fil0" d="M0 78.72c0,-43.47 35.24,-78.72 78.72,-78.72 43.48,0 78.73,35.25 78.73,78.72 0,43.48 -35.25,78.72 -78.73,78.72 -43.48,0 -78.72,-35.24 -78.72,-78.72z"/>
  <path class="fil1" d="M45.11 7.52c0.27,-0.13 0.54,-0.26 0.81,-0.39 6.86,-3.18 14.2,-5.3 21.69,-6.35 -7.94,1.12 -15.5,3.43 -22.5,6.74zm33.77 -7.52c-0.05,0 -0.1,0 -0.15,0 0.02,0 0.03,0 0.05,0 0.03,0 0.05,0 0.08,0 0.01,0 0.01,0 0.02,0z"/>
  <path class="fil2" d="M138.17 28.12c-7.54,-8.32 -16.73,-15.09 -26.91,-19.66 -10.12,-4.57 -21.19,-7.03 -32.3,-7.03 -0.03,0 -0.07,0 -0.11,0 -0.28,0 -0.56,0 -0.85,0 -10.85,0 -21.68,2.33 -31.63,6.71 -10.22,4.47 -19.47,11.15 -27.09,19.4 3.58,-4.33 7.7,-8.22 12.16,-11.67 4.25,-3.24 8.84,-6.04 13.67,-8.35 7,-3.31 14.56,-5.62 22.5,-6.74 3.68,-0.52 7.4,-0.78 11.12,-0.78 0.05,0 0.1,0 0.15,0 11.32,0.1 22.64,2.59 32.85,7.46 5.1,2.43 9.94,5.41 14.39,8.87 4.43,3.5 8.51,7.43 12.05,11.79z"/>
  <path class="fil3" d="M78.72 157.44c-0.51,0 -1.01,0 -1.52,-0.01 0.51,0.01 1.01,0.01 1.52,0.01 43.48,0 78.73,-35.24 78.73,-78.72 0,-0.25 -0.01,-0.5 -0.01,-0.74 0.01,0.24 0.01,0.49 0.01,0.74 0,43.48 -35.25,78.72 -78.73,78.72z"/>
  <path class="fil4" d="M78.72 157.44c-0.51,0 -1.01,0 -1.52,-0.01 -42.78,-0.81 -77.2,-35.74 -77.2,-78.71 0,-1.23 0.04,-2.46 0.09,-3.68 1.93,41.76 36.39,75.03 78.63,75.03 42.24,0 76.71,-33.27 78.63,-75.03 0.05,0.97 0.08,1.95 0.09,2.94 0,0.24 0.01,0.49 0.01,0.74 0,43.48 -35.25,78.72 -78.73,78.72z"/>
  <path class="fil5" d="M97.86 33.25l-38.27 0c-3.66,0 -6.62,2.97 -6.62,6.62l0 77.71c0,3.65 2.96,6.61 6.62,6.61l38.27 0c3.65,0 6.61,-2.96 6.61,-6.62l0 -77.7c0,-3.65 -2.96,-6.62 -6.61,-6.62zm-28.58 4.02l18.89 0c0.48,0 0.87,0.72 0.87,1.6 0,0.88 -0.39,1.6 -0.87,1.6l-18.89 0c-0.48,0 -0.86,-0.72 -0.86,-1.6 0,-0.88 0.38,-1.6 0.86,-1.6zm9.45 80.38c-2.33,0 -4.23,-1.89 -4.23,-4.22 0,-2.34 1.9,-4.23 4.23,-4.23 2.32,0 4.22,1.89 4.22,4.23 0,2.33 -1.9,4.22 -4.22,4.22zm20.79 -14.47l-41.58 0 0 -58.75 41.58 0 0 58.75z"/>
 </g>
</svg>
