<?xml version="1.0" encoding="UTF-8"?>
<!DOCTYPE svg PUBLIC "-//W3C//DTD SVG 1.0//EN" "http://www.w3.org/TR/2001/REC-SVG-20010904/DTD/svg10.dtd">
<!-- Creator: CorelDRAW -->
<svg xmlns="http://www.w3.org/2000/svg" xml:space="preserve" width="800px" height="800px" version="1.0" style="shape-rendering:geometricPrecision; text-rendering:geometricPrecision; image-rendering:optimizeQuality; fill-rule:evenodd; clip-rule:evenodd"
viewBox="0 0 348.82 348.82"
 xmlns:xlink="http://www.w3.org/1999/xlink"
 xmlns:xodm="http://www.corel.com/coreldraw/odm/2003">
 <defs>
  <style type="text/css">
   <![CDATA[
    .str0 {stroke:#F0F0F0;stroke-width:4.34;stroke-miterlimit:22.9256}
    .fil1 {fill:none}
    .fil0 {fill:#FFB200;fill-rule:nonzero}
   ]]>
  </style>
 </defs>
 <g id="Layer_x0020_1">
  <metadata id="CorelCorpID_0Corel-Layer"/>
  <g id="_2554057325616">
   <path class="fil0 str0" d="M254.88 153.98l-20.99 0 0 -7.21c4.34,-5.83 7,-12.97 7,-20.78 0,-19.29 -15.7,-34.99 -34.99,-34.99 -5.5,0 -10.8,1.28 -15.55,3.66 -4.42,-14.27 -17.73,-24.65 -33.43,-24.65 -15.7,0 -29.02,10.38 -33.44,24.65 -4.74,-2.38 -10.05,-3.66 -15.55,-3.66 -19.28,0 -34.99,15.7 -34.99,34.99 0,7.81 2.66,14.95 7,20.78l0 119.17c0,15.44 12.56,27.99 27.99,27.99l97.97 0c15.44,0 27.99,-12.55 27.99,-27.99l0 -13.99 20.99 0c11.58,0 21,-9.42 21,-21l0 -55.98c0,-11.57 -9.42,-20.99 -21,-20.99zm-34.98 111.96c0,7.71 -6.29,14 -14,14l-97.97 0c-7.71,0 -13.99,-6.29 -13.99,-14l0 -107.93c4.3,1.89 9.01,2.97 13.99,2.97l0 13.99c0,9.11 5.87,16.81 14,19.71l0 50.27c0,3.86 3.13,7 7,7 3.86,0 6.99,-3.14 6.99,-7l0 -50.27c8.14,-2.9 14,-10.6 14,-19.71l0 -9.93c13.1,5.79 29.64,2.4 39.56,-8.15 4.97,2.69 10.54,4.09 16.42,4.09 4.98,0 9.7,-1.08 14,-2.97l0 107.93zm-14 -118.96c-5.01,0 -9.63,-1.69 -13.35,-4.9 -1.54,-1.33 -3.61,-1.89 -5.63,-1.6 -2.01,0.32 -3.79,1.49 -4.88,3.23 -7.21,11.61 -25.16,13.14 -33.8,3.06 -1.92,-2.24 -5,-3.03 -7.74,-2.01 -2.76,1.02 -4.58,3.63 -4.58,6.56l0 23.65c0,3.87 -3.13,7 -6.99,7 -3.87,0 -7,-3.13 -7,-7l0 -21.97c0,-2.23 -1.06,-4.32 -2.85,-5.64 -1.22,-0.9 -2.68,-1.36 -4.15,-1.36 -0.7,0 -1.4,0.1 -2.07,0.31 -1.43,0.45 -3.08,0.67 -4.93,0.67 -11.57,0 -20.99,-9.42 -20.99,-20.99 0,-11.57 9.42,-20.99 20.99,-20.99 6.15,0 11.89,2.66 15.76,7.29 2.02,2.42 5.38,3.17 8.26,1.86 2.87,-1.3 4.52,-4.37 4.01,-7.47 -0.06,-0.51 -0.04,-1.1 -0.04,-1.68 0,-11.58 9.42,-21 21,-21 11.57,0 20.99,9.42 20.99,21 0,0.58 0.03,1.17 -0.04,1.68 -0.51,3.1 1.15,6.17 4,7.47 2.9,1.33 6.26,0.56 8.26,-1.86 3.89,-4.63 9.63,-7.29 15.77,-7.29 11.57,0 20.99,9.42 20.99,20.99 0,11.57 -9.42,20.99 -20.99,20.99zm55.98 83.97c0,3.87 -3.13,7 -7,7l-20.99 0 0 -69.98 20.99 0c3.87,0 7,3.14 7,7l0 55.98z"/>
   <path class="fil0 str0" d="M184.91 181.97c-3.87,0 -7,3.13 -7,7l0 55.98c0,3.86 3.13,7 7,7 3.86,0 6.99,-3.14 6.99,-7l0 -55.98c0,-3.87 -3.13,-7 -6.99,-7z"/>
  </g>
  <rect class="fil1" width="348.82" height="348.82"/>
 </g>
</svg>
