<?xml version="1.0" encoding="UTF-8"?>
<!DOCTYPE svg PUBLIC "-//W3C//DTD SVG 1.0//EN" "http://www.w3.org/TR/2001/REC-SVG-20010904/DTD/svg10.dtd">
<!-- Creator: CorelDRAW -->
<svg xmlns="http://www.w3.org/2000/svg" xml:space="preserve" width="800px" height="800px" version="1.0" style="shape-rendering:geometricPrecision; text-rendering:geometricPrecision; image-rendering:optimizeQuality; fill-rule:evenodd; clip-rule:evenodd"
viewBox="0 0 118.18 118.18"
 xmlns:xlink="http://www.w3.org/1999/xlink"
 xmlns:xodm="http://www.corel.com/coreldraw/odm/2003">
 <defs>
  <style type="text/css">
   <![CDATA[
    .str0 {stroke:#F0F0F0;stroke-width:1.47;stroke-miterlimit:22.9256}
    .fil1 {fill:none}
    .fil0 {fill:#FFB200;fill-rule:nonzero}
   ]]>
  </style>
 </defs>
 <g id="Layer_x0020_1">
  <metadata id="CorelCorpID_0Corel-Layer"/>
  <path class="fil0 str0" d="M93.72 28.12c0.65,-0.81 0.78,-1.93 0.32,-2.86 -0.45,-0.95 -1.4,-1.54 -2.44,-1.54l-65.03 0c-1.04,0 -1.99,0.59 -2.44,1.53 -0.45,0.94 -0.33,2.06 0.33,2.87l31.92 39.9 0 26.14 -10.84 0c-1.5,0 -2.71,1.21 -2.71,2.71 0,1.5 1.21,2.71 2.71,2.71l27.09 0c1.5,0 2.71,-1.21 2.71,-2.71 0,-1.5 -1.21,-2.71 -2.71,-2.71l-10.84 0 0 -26.14 31.93 -39.9zm-61.51 1.02l53.75 0 -4.33 5.42 -45.09 0 -4.33 -5.42zm26.88 33.59l-18.21 -22.76 36.41 0 -18.2 22.76z"/>
  <rect class="fil1" width="118.18" height="118.18"/>
 </g>
</svg>
