<?xml version="1.0" encoding="UTF-8"?>
<!DOCTYPE svg PUBLIC "-//W3C//DTD SVG 1.0//EN" "http://www.w3.org/TR/2001/REC-SVG-20010904/DTD/svg10.dtd">
<!-- Creator: CorelDRAW -->
<svg xmlns="http://www.w3.org/2000/svg" xml:space="preserve" width="800px" height="800px" version="1.0" style="shape-rendering:geometricPrecision; text-rendering:geometricPrecision; image-rendering:optimizeQuality; fill-rule:evenodd; clip-rule:evenodd"
viewBox="0 0 6.62 6.63"
 xmlns:xlink="http://www.w3.org/1999/xlink"
 xmlns:xodm="http://www.corel.com/coreldraw/odm/2003">
 <defs>
  <style type="text/css">
   <![CDATA[
    .fil0 {fill:#7B519D;fill-rule:nonzero}
    .fil2 {fill:#7E8384;fill-rule:nonzero}
    .fil1 {fill:white;fill-rule:nonzero}
   ]]>
  </style>
 </defs>
 <g id="Layer_x0020_1">
  <metadata id="CorelCorpID_0Corel-Layer"/>
  <path class="fil0" d="M0 3.31c0,-1.83 1.48,-3.31 3.31,-3.31 1.83,0 3.31,1.48 3.31,3.31 0,1.83 -1.48,3.31 -3.31,3.31 -1.83,0 -3.31,-1.48 -3.31,-3.31z"/>
  <g id="_2224101383408">
   <g>
    <path class="fil1" d="M4.76 4.12c-0.1,-0.09 -0.22,-0.17 -0.33,-0.24 -0.22,-0.16 -0.43,-0.17 -0.6,0.08 -0.09,0.14 -0.22,0.15 -0.36,0.08 -0.38,-0.17 -0.67,-0.43 -0.84,-0.82 -0.08,-0.17 -0.08,-0.32 0.1,-0.44 0.1,-0.06 0.19,-0.14 0.18,-0.28 -0.01,-0.18 -0.45,-0.79 -0.62,-0.85 -0.07,-0.03 -0.15,-0.03 -0.22,0 -0.41,0.14 -0.58,0.47 -0.41,0.87 0.48,1.19 1.33,2.01 2.5,2.51 0.06,0.03 0.14,0.04 0.18,0.06 0.26,0 0.57,-0.26 0.67,-0.51 0.08,-0.25 -0.1,-0.35 -0.25,-0.46z"/>
    <path class="fil1" d="M3.45 1.72c0.86,0.14 1.25,0.54 1.36,1.4 0.01,0.08 -0.02,0.2 0.09,0.21 0.12,0 0.09,-0.12 0.1,-0.2 0.01,-0.81 -0.7,-1.56 -1.52,-1.59 -0.07,0.01 -0.19,-0.04 -0.2,0.1 -0.01,0.09 0.1,0.07 0.17,0.08z"/>
   </g>
   <path class="fil1" d="M3.62 1.96c-0.08,-0.01 -0.19,-0.05 -0.21,0.07 -0.02,0.12 0.1,0.1 0.18,0.12 0.53,0.12 0.71,0.31 0.8,0.84 0.01,0.07 -0.02,0.19 0.11,0.17 0.1,-0.01 0.07,-0.12 0.07,-0.17 0.01,-0.51 -0.42,-0.97 -0.95,-1.03z"/>
   <path class="fil1" d="M3.67 2.37c-0.06,0 -0.11,0.01 -0.13,0.07 -0.03,0.09 0.03,0.11 0.1,0.12 0.21,0.03 0.33,0.16 0.35,0.38 0,0.05 0.04,0.1 0.1,0.1 0.08,-0.01 0.08,-0.08 0.08,-0.15 0.01,-0.24 -0.27,-0.52 -0.5,-0.52z"/>
  </g>
  <path class="fil2" d="M3.31 6.63c-1.83,0 -3.31,-1.49 -3.31,-3.31 0,-0.01 0,-0.02 0,-0.03 0,0.01 0,0.01 0,0.02 0,1.83 1.48,3.31 3.31,3.31 1.8,0 3.26,-1.43 3.31,-3.21 -0.05,1.79 -1.51,3.22 -3.31,3.22z"/>
 </g>
</svg>
