<?xml version="1.0" encoding="UTF-8"?>
<!DOCTYPE svg PUBLIC "-//W3C//DTD SVG 1.0//EN" "http://www.w3.org/TR/2001/REC-SVG-20010904/DTD/svg10.dtd">
<!-- Creator: CorelDRAW -->
<svg xmlns="http://www.w3.org/2000/svg" xml:space="preserve" width="800px" height="800px" version="1.0" style="shape-rendering:geometricPrecision; text-rendering:geometricPrecision; image-rendering:optimizeQuality; fill-rule:evenodd; clip-rule:evenodd"
viewBox="0 0 75.68 75.73"
 xmlns:xlink="http://www.w3.org/1999/xlink"
 xmlns:xodm="http://www.corel.com/coreldraw/odm/2003">
 <defs>
  <style type="text/css">
   <![CDATA[
    .fil3 {fill:#5D3D76;fill-rule:nonzero}
    .fil0 {fill:#7B519D;fill-rule:nonzero}
    .fil2 {fill:#7E8384;fill-rule:nonzero}
    .fil1 {fill:white;fill-rule:nonzero}
   ]]>
  </style>
 </defs>
 <g id="Layer_x0020_1">
  <metadata id="CorelCorpID_0Corel-Layer"/>
  <path class="fil0" d="M0 37.84c0,-20.9 16.94,-37.84 37.84,-37.84 20.9,0 37.84,16.94 37.84,37.84 0,20.9 -16.94,37.84 -37.84,37.84 -20.9,0 -37.84,-16.94 -37.84,-37.84z"/>
  <path class="fil1" d="M54.44 46.51c-1.22,-0.98 -2.52,-1.87 -3.81,-2.77 -2.56,-1.8 -4.9,-1.94 -6.81,0.96 -1.07,1.62 -2.57,1.69 -4.14,0.98 -4.33,-1.96 -7.68,-4.99 -9.63,-9.39 -0.87,-1.94 -0.86,-3.69 1.17,-5.06 1.07,-0.73 2.15,-1.59 2.07,-3.19 -0.12,-2.07 -5.15,-9 -7.14,-9.73 -0.83,-0.31 -1.65,-0.29 -2.48,-0.01 -4.67,1.57 -6.6,5.41 -4.75,9.95 5.52,13.55 15.23,22.98 28.6,28.74 0.77,0.33 1.61,0.46 2.04,0.58 3.05,0.03 6.61,-2.91 7.64,-5.82 0.99,-2.8 -1.1,-3.91 -2.76,-5.24z"/>
  <path class="fil1" d="M39.45 19.16c9.77,1.5 14.28,6.15 15.53,16 0.11,0.91 -0.23,2.28 1.07,2.3 1.35,0.03 1.03,-1.32 1.04,-2.23 0.11,-9.27 -7.97,-17.87 -17.36,-18.19 -0.71,0.11 -2.17,-0.48 -2.27,1.1 -0.06,1.07 1.18,0.9 1.99,1.02z"/>
  <path class="fil1" d="M41.36 21.86c-0.94,-0.11 -2.18,-0.55 -2.4,0.75 -0.23,1.37 1.15,1.23 2.04,1.43 6.04,1.35 8.14,3.55 9.13,9.54 0.15,0.87 -0.14,2.23 1.35,2 1.09,-0.17 0.7,-1.33 0.79,-2.01 0.05,-5.75 -4.88,-10.98 -10.91,-11.71z"/>
  <path class="fil1" d="M41.91 26.56c-0.62,0.02 -1.24,0.09 -1.47,0.76 -0.35,1 0.38,1.24 1.12,1.36 2.48,0.4 3.78,1.86 4.03,4.33 0.07,0.67 0.49,1.21 1.14,1.13 0.9,-0.1 0.98,-0.9 0.95,-1.66 0.05,-2.78 -3.09,-5.98 -5.77,-5.92z"/>
  <path class="fil2" d="M37.84 75.73c-20.9,0 -37.84,-16.94 -37.84,-37.84 0,-0.11 0,-0.22 0,-0.32 0,0.09 0,0.18 0,0.27 0,20.9 16.94,37.84 37.84,37.84 20.51,0 37.21,-16.32 37.83,-36.68 -0.59,20.39 -17.3,36.73 -37.83,36.73z"/>
  <path class="fil3" d="M37.84 75.68c-20.9,0 -37.84,-16.94 -37.84,-37.84 0,-0.09 0,-0.18 0,-0.27 0.01,-0.49 0.02,-0.97 0.04,-1.45 0.93,20.07 17.5,36.07 37.8,36.07 20.31,0 36.87,-16 37.8,-36.07 0.02,0.58 0.04,1.17 0.04,1.77 0,0.37 0,0.74 -0.01,1.11 -0.62,20.36 -17.32,36.68 -37.83,36.68z"/>
 </g>
</svg>
