<?xml version="1.0" encoding="UTF-8"?>
<!DOCTYPE svg PUBLIC "-//W3C//DTD SVG 1.0//EN" "http://www.w3.org/TR/2001/REC-SVG-20010904/DTD/svg10.dtd">
<!-- Creator: CorelDRAW -->
<svg xmlns="http://www.w3.org/2000/svg" xml:space="preserve" width="800px" height="800px" version="1.0" style="shape-rendering:geometricPrecision; text-rendering:geometricPrecision; image-rendering:optimizeQuality; fill-rule:evenodd; clip-rule:evenodd"
viewBox="0 0 366.51 366.51"
 xmlns:xlink="http://www.w3.org/1999/xlink"
 xmlns:xodm="http://www.corel.com/coreldraw/odm/2003">
 <defs>
  <style type="text/css">
   <![CDATA[
    .str0 {stroke:#FFB200;stroke-width:4.56;stroke-miterlimit:22.9256}
    .fil1 {fill:none}
    .fil0 {fill:white;fill-rule:nonzero}
   ]]>
  </style>
 </defs>
 <g id="Layer_x0020_1">
  <metadata id="CorelCorpID_0Corel-Layer"/>
  <path class="fil0 str0" d="M264.13 154.43c0,-6.16 -0.66,-12.16 -1.95,-17.8 -0.03,-0.15 -0.07,-0.3 -0.12,-0.44l-12.82 -56.9c-0.74,-3.35 -3.74,-5.73 -7.17,-5.73l-117.63 0c-3.43,0 -6.43,2.38 -7.17,5.73l-12.82 56.87c-0.04,0.14 -0.09,0.3 -0.12,0.47 -1.29,5.64 -1.95,11.64 -1.95,17.8 0,42.12 32.36,76.78 73.52,80.51l0 59.19 -29.41 0c-4.05,0 -7.35,3.29 -7.35,7.35 0,4.06 3.3,7.35 7.35,7.35l73.53 0c4.06,0 7.35,-3.29 7.35,-7.35 0,-4.06 -3.29,-7.35 -7.35,-7.35l-29.41 0 0 -59.19c41.16,-3.73 73.52,-38.39 73.52,-80.51zm-145.55 -14.11c0.03,-0.16 0.08,-0.33 0.11,-0.5l11.61 -51.56 105.89 0 11.62 51.56c0.03,0.14 0.07,0.31 0.12,0.45 0.48,2.17 0.47,4.55 0.72,6.81l-130.79 0c0.25,-2.26 0.24,-4.63 0.72,-6.76zm64.68 80.28c-33.97,0 -61.72,-25.82 -65.43,-58.82l130.86 0c-3.72,33 -31.47,58.82 -65.43,58.82z"/>
  <rect class="fil1" width="366.51" height="366.51"/>
 </g>
</svg>
