<?xml version="1.0" encoding="UTF-8"?>
<!DOCTYPE svg PUBLIC "-//W3C//DTD SVG 1.0//EN" "http://www.w3.org/TR/2001/REC-SVG-20010904/DTD/svg10.dtd">
<!-- Creator: CorelDRAW -->
<svg xmlns="http://www.w3.org/2000/svg" xml:space="preserve" width="800px" height="800px" version="1.0" style="shape-rendering:geometricPrecision; text-rendering:geometricPrecision; image-rendering:optimizeQuality; fill-rule:evenodd; clip-rule:evenodd"
viewBox="0 0 348.82 348.82"
 xmlns:xlink="http://www.w3.org/1999/xlink"
 xmlns:xodm="http://www.corel.com/coreldraw/odm/2003">
 <defs>
  <style type="text/css">
   <![CDATA[
    .str0 {stroke:#F0F0F0;stroke-width:4.34;stroke-miterlimit:22.9256}
    .fil1 {fill:none}
    .fil0 {fill:#FFB200;fill-rule:nonzero}
   ]]>
  </style>
 </defs>
 <g id="Layer_x0020_1">
  <metadata id="CorelCorpID_0Corel-Layer"/>
  <g id="_2546352721584">
   <path class="fil0 str0" d="M273.32 144.28c-0.36,-0.86 -0.88,-1.63 -1.54,-2.27 -0.01,-0.01 -0.01,-0.03 -0.01,-0.03 -10.29,-10.05 -16.98,-23.44 -18.92,-37.72l0 -27.25c0,-3.87 -3.13,-7 -6.99,-7l-27.98 0c-3.87,0 -7,3.13 -7,7l0 27.31c-1.93,14.25 -8.62,27.61 -18.9,37.66 0,0 0,0.02 -0.01,0.03 -0.66,0.63 -1.18,1.4 -1.54,2.27 -0.36,0.84 -0.53,1.75 -0.55,2.66 0,0.01 0,0.03 0,0.04l0 55.99c0,0.11 0.06,0.19 0.06,0.29 0.02,0.45 0.15,0.88 0.27,1.32 0.12,0.49 0.21,0.96 0.42,1.4 0.04,0.08 0.04,0.18 0.08,0.28 8.19,15.46 8.19,33.95 0,49.42 -0.54,1.01 -0.83,2.13 -0.83,3.27l0 20.99c0,7.72 6.27,13.99 14,13.99l55.99 0c7.73,0 14,-6.27 14,-13.99l0 -20.99c0,-1.14 -0.28,-2.26 -0.83,-3.27 -8.19,-15.47 -8.19,-33.96 0,-49.42 0.04,-0.09 0.04,-0.19 0.08,-0.28 0.21,-0.44 0.3,-0.91 0.41,-1.39 0.11,-0.45 0.25,-0.87 0.27,-1.32 0.01,-0.11 0.07,-0.19 0.07,-0.3l0 -55.99c0,-0.01 0,-0.03 0,-0.04 -0.02,-0.91 -0.19,-1.82 -0.55,-2.66zm-48.44 -60.27l13.98 0 0 13.98 -13.98 0 0 -13.98zm-1.39 27.98l16.77 0c2.15,10.02 6.13,19.54 11.88,27.99l-40.53 0c5.75,-8.45 9.72,-17.97 11.88,-27.99zm36.38 167.95l-55.99 0 0 -19.31c7.88,-15.88 8.96,-34.08 3.46,-50.67l49.07 0c-5.5,16.59 -4.42,34.79 3.46,50.67l0 19.31zm0 -83.97l-55.99 0 0 -41.99 55.99 0 0 41.99z"/>
   <path class="fil0 str0" d="M158.39 144.28c-0.36,-0.86 -0.88,-1.63 -1.54,-2.27 -0.01,-0.01 -0.01,-0.03 -0.01,-0.03 -10.29,-10.05 -16.98,-23.44 -18.91,-37.72l0 -27.25c0,-3.87 -3.14,-7 -7,-7l-27.98 0c-3.86,0 -7,3.13 -7,7l0 27.31c-1.93,14.25 -8.62,27.61 -18.89,37.66 0,0 0,0.02 -0.02,0.03 -0.66,0.63 -1.17,1.4 -1.54,2.27 -0.36,0.84 -0.53,1.75 -0.54,2.66 0,0.01 0,0.03 0,0.04l0 55.99c0,0.11 0.05,0.19 0.05,0.29 0.02,0.45 0.16,0.88 0.27,1.32 0.13,0.49 0.21,0.96 0.42,1.4 0.04,0.08 0.04,0.18 0.08,0.28 8.19,15.46 8.19,33.95 0,49.42 -0.54,1.01 -0.82,2.13 -0.82,3.27l0 20.99c0,7.72 6.27,13.99 14,13.99l55.98 0c7.73,0 14,-6.27 14,-13.99l0 -20.99c0,-1.14 -0.28,-2.26 -0.83,-3.27 -8.19,-15.47 -8.19,-33.96 0,-49.42 0.04,-0.09 0.04,-0.19 0.09,-0.28 0.21,-0.44 0.29,-0.91 0.4,-1.39 0.11,-0.45 0.26,-0.87 0.27,-1.32 0.01,-0.11 0.07,-0.19 0.07,-0.3l0 -55.99c0,-0.01 0,-0.03 0,-0.04 -0.02,-0.91 -0.18,-1.82 -0.55,-2.66zm-48.44 -60.27l13.98 0 0 13.98 -13.98 0 0 -13.98zm-1.39 27.98l16.77 0c2.16,10.02 6.13,19.54 11.88,27.99l-40.53 0c5.75,-8.45 9.73,-17.97 11.88,-27.99zm36.38 167.95l-55.98 0 0 -19.31c7.87,-15.88 8.95,-34.08 3.45,-50.67l49.07 0c-5.49,16.59 -4.42,34.79 3.46,50.67l0 19.31zm0 -83.97l-55.98 0 0 -41.99 55.98 0 0 41.99z"/>
  </g>
  <rect class="fil1" width="348.82" height="348.82"/>
 </g>
</svg>
