<?xml version="1.0" encoding="UTF-8"?>
<!DOCTYPE svg PUBLIC "-//W3C//DTD SVG 1.0//EN" "http://www.w3.org/TR/2001/REC-SVG-20010904/DTD/svg10.dtd">
<!-- Creator: CorelDRAW -->
<svg xmlns="http://www.w3.org/2000/svg" xml:space="preserve" width="800px" height="800px" version="1.0" style="shape-rendering:geometricPrecision; text-rendering:geometricPrecision; image-rendering:optimizeQuality; fill-rule:evenodd; clip-rule:evenodd"
viewBox="0 0 102.23 102.23"
 xmlns:xlink="http://www.w3.org/1999/xlink"
 xmlns:xodm="http://www.corel.com/coreldraw/odm/2003">
 <defs>
  <style type="text/css">
   <![CDATA[
    .fil1 {fill:white}
    .fil5 {fill:#24902B;fill-rule:nonzero}
    .fil0 {fill:#30BF39;fill-rule:nonzero}
    .fil3 {fill:#6FDD79;fill-rule:nonzero}
    .fil4 {fill:#7E8384;fill-rule:nonzero}
    .fil2 {fill:#CED3D3;fill-rule:nonzero}
   ]]>
  </style>
 </defs>
 <g id="Layer_x0020_1">
  <metadata id="CorelCorpID_0Corel-Layer"/>
  <path class="fil0" d="M0 51.11c0,-28.22 22.88,-51.11 51.11,-51.11 28.23,0 51.12,22.89 51.12,51.11 0,28.23 -22.89,51.12 -51.12,51.12 -28.23,0 -51.11,-22.89 -51.11,-51.12z"/>
  <path class="fil1" d="M53.49 21.56c-15.4,0 -27.88,12.48 -27.88,27.88 0,5.27 1.46,10.2 4,14.4l-5.03 14.96 15.43 -4.94c4,2.21 8.59,3.47 13.48,3.47 15.4,0 27.89,-12.49 27.89,-27.89 0,-15.4 -12.49,-27.88 -27.89,-27.88zm0 51.1c-4.71,0 -9.1,-1.42 -12.77,-3.84l-8.92 2.85 2.9 -8.62c-2.78,-3.82 -4.42,-8.52 -4.42,-13.61 0,-12.8 10.41,-23.21 23.21,-23.21 12.8,0 23.22,10.41 23.22,23.21 0,12.8 -10.42,23.22 -23.22,23.22zm13.08 -16.88c-0.7,-0.38 -4.14,-2.24 -4.78,-2.5 -0.64,-0.26 -1.11,-0.4 -1.62,0.3 -0.49,0.69 -1.92,2.25 -2.35,2.7 -0.44,0.46 -0.85,0.51 -1.55,0.12 -0.7,-0.38 -2.97,-1.22 -5.59,-3.74 -2.05,-1.97 -3.39,-4.35 -3.78,-5.08 -0.39,-0.73 0,-1.1 0.37,-1.44 0.33,-0.31 0.74,-0.81 1.11,-1.21 0.37,-0.4 0.5,-0.69 0.76,-1.16 0.25,-0.46 0.15,-0.88 -0.01,-1.25 -0.17,-0.36 -1.46,-3.91 -2,-5.36 -0.54,-1.45 -1.14,-1.23 -1.56,-1.25 -0.41,-0.01 -0.88,-0.09 -1.36,-0.11 -0.47,-0.02 -1.25,0.13 -1.93,0.82 -0.68,0.69 -2.58,2.34 -2.71,5.84 -0.14,3.5 2.29,6.98 2.63,7.47 0.33,0.49 4.62,8.08 11.75,11.2 7.13,3.12 7.17,2.17 8.48,2.1 1.31,-0.07 4.27,-1.56 4.93,-3.2 0.65,-1.64 0.71,-3.06 0.54,-3.37 -0.17,-0.3 -0.63,-0.5 -1.33,-0.88z"/>
  <path class="fil2" d="M29.29 4.88c0.17,-0.08 0.35,-0.17 0.52,-0.25 4.46,-2.07 9.22,-3.44 14.09,-4.12 -5.16,0.72 -10.07,2.22 -14.61,4.37zm21.93 -4.88c-0.04,0 -0.07,0 -0.1,0 0.01,0 0.02,0 0.03,0 0.02,0 0.04,0 0.05,0 0.01,0 0.01,0 0.02,0z"/>
  <path class="fil3" d="M89.71 18.26c-4.9,-5.4 -10.86,-9.8 -17.47,-12.77 -6.57,-2.97 -13.76,-4.56 -20.97,-4.56 -0.03,0 -0.05,0 -0.07,0 -0.19,0 -0.37,0 -0.55,0 -7.05,0 -14.08,1.51 -20.54,4.35 -6.64,2.91 -12.64,7.25 -17.59,12.6 2.32,-2.81 5,-5.34 7.89,-7.58 2.76,-2.1 5.74,-3.92 8.88,-5.42 4.54,-2.15 9.45,-3.65 14.61,-4.37 2.39,-0.34 4.8,-0.51 7.22,-0.51 0.03,0 0.06,0 0.1,0 7.34,0.06 14.69,1.68 21.32,4.84 3.32,1.58 6.46,3.52 9.35,5.76 2.87,2.27 5.52,4.83 7.82,7.66z"/>
  <path class="fil4" d="M51.11 102.23c-0.33,0 -0.66,-0.01 -0.99,-0.01 0.33,0 0.66,0.01 0.99,0.01 28.23,0 51.12,-22.89 51.12,-51.12 0,-0.16 0,-0.32 -0.01,-0.48 0.01,0.16 0.01,0.32 0.01,0.48 0,28.23 -22.89,51.12 -51.12,51.12z"/>
  <path class="fil5" d="M51.11 102.23c-0.33,0 -0.66,-0.01 -0.99,-0.01 -27.77,-0.53 -50.12,-23.21 -50.12,-51.11 0,-0.8 0.02,-1.6 0.06,-2.39 1.25,27.12 23.63,48.72 51.05,48.72 27.43,0 49.81,-21.6 51.06,-48.72 0.03,0.63 0.05,1.27 0.05,1.91 0.01,0.16 0.01,0.32 0.01,0.48 0,28.23 -22.89,51.12 -51.12,51.12z"/>
 </g>
</svg>
