<?xml version="1.0" encoding="UTF-8"?>
<!DOCTYPE svg PUBLIC "-//W3C//DTD SVG 1.0//EN" "http://www.w3.org/TR/2001/REC-SVG-20010904/DTD/svg10.dtd">
<!-- Creator: CorelDRAW -->
<svg xmlns="http://www.w3.org/2000/svg" xml:space="preserve" width="800px" height="800px" version="1.0" style="shape-rendering:geometricPrecision; text-rendering:geometricPrecision; image-rendering:optimizeQuality; fill-rule:evenodd; clip-rule:evenodd"
viewBox="0 0 6.78 6.78"
 xmlns:xlink="http://www.w3.org/1999/xlink"
 xmlns:xodm="http://www.corel.com/coreldraw/odm/2003">
 <defs>
  <style type="text/css">
   <![CDATA[
    .fil1 {fill:white}
    .fil0 {fill:#30BF39;fill-rule:nonzero}
    .fil3 {fill:#7E8384;fill-rule:nonzero}
    .fil2 {fill:#CED3D3;fill-rule:nonzero}
   ]]>
  </style>
 </defs>
 <g id="Layer_x0020_1">
  <metadata id="CorelCorpID_0Corel-Layer"/>
  <path class="fil0" d="M0 3.39c0,-1.87 1.52,-3.39 3.39,-3.39 1.87,0 3.39,1.52 3.39,3.39 0,1.87 -1.52,3.39 -3.39,3.39 -1.87,0 -3.39,-1.52 -3.39,-3.39z"/>
  <path class="fil1" d="M3.42 1.49c-1.02,0 -1.85,0.83 -1.85,1.85 0,0.35 0.1,0.68 0.27,0.95l-0.33 1 1.02 -0.33c0.26,0.14 0.57,0.23 0.89,0.23 1.02,0 1.85,-0.83 1.85,-1.85 0,-1.02 -0.83,-1.85 -1.85,-1.85zm0 3.39c-0.31,0 -0.6,-0.1 -0.84,-0.26l-0.6 0.19 0.2 -0.57c-0.19,-0.25 -0.3,-0.56 -0.3,-0.9 0,-0.85 0.69,-1.54 1.54,-1.54 0.85,0 1.54,0.69 1.54,1.54 0,0.85 -0.69,1.54 -1.54,1.54zm0.87 -1.12c-0.05,-0.03 -0.28,-0.15 -0.32,-0.17 -0.04,-0.01 -0.07,-0.02 -0.11,0.02 -0.03,0.05 -0.12,0.15 -0.15,0.18 -0.03,0.03 -0.06,0.04 -0.1,0.01 -0.05,-0.02 -0.2,-0.08 -0.37,-0.25 -0.14,-0.13 -0.23,-0.29 -0.25,-0.33 -0.03,-0.05 0,-0.08 0.02,-0.1 0.02,-0.02 0.05,-0.05 0.07,-0.08 0.03,-0.03 0.04,-0.05 0.05,-0.08 0.02,-0.03 0.01,-0.06 0,-0.08 -0.01,-0.02 -0.09,-0.26 -0.13,-0.36 -0.04,-0.09 -0.08,-0.08 -0.1,-0.08 -0.03,0 -0.06,0 -0.09,-0.01 -0.03,0 -0.09,0.01 -0.13,0.06 -0.05,0.04 -0.17,0.15 -0.18,0.39 -0.01,0.23 0.15,0.46 0.17,0.49 0.03,0.03 0.31,0.54 0.78,0.74 0.48,0.21 0.48,0.15 0.56,0.14 0.09,0 0.29,-0.1 0.33,-0.21 0.04,-0.11 0.05,-0.2 0.04,-0.22 -0.01,-0.02 -0.04,-0.04 -0.09,-0.06z"/>
  <path class="fil2" d="M1.94 0.32c0.01,0 0.02,-0.01 0.04,-0.01 0.29,-0.14 0.61,-0.23 0.93,-0.28 -0.34,0.05 -0.67,0.15 -0.97,0.29zm1.45 -0.32c0,0 0,0 0,0 0,0 0,0 0,0 0,0 0,0 0,0 0,0 0,0 0,0z"/>
  <path class="fil3" d="M3.39 6.78c-0.02,0 -0.05,0 -0.07,0 0.02,0 0.05,0 0.07,0 1.87,0 3.39,-1.52 3.39,-3.39 0,-0.01 0,-0.02 0,-0.03 0,0.01 0,0.02 0,0.03 0,1.87 -1.52,3.39 -3.39,3.39z"/>
 </g>
</svg>
